<svg width="23" height="23" viewBox="0 0 23 23" fill="none" xmlns="http://www.w3.org/2000/svg">
<g id="bi:clock-fill" clip-path="url(#clip0_63_247)">
<path id="Vector" d="M23 11.5C23 14.55 21.7884 17.4751 19.6317 19.6317C17.4751 21.7884 14.55 23 11.5 23C8.45001 23 5.52494 21.7884 3.36827 19.6317C1.2116 17.4751 0 14.55 0 11.5C0 8.45001 1.2116 5.52494 3.36827 3.36827C5.52494 1.2116 8.45001 0 11.5 0C14.55 0 17.4751 1.2116 19.6317 3.36827C21.7884 5.52494 23 8.45001 23 11.5ZM11.5 5.03125C11.5 4.84063 11.4243 4.65781 11.2895 4.52302C11.1547 4.38823 10.9719 4.3125 10.7812 4.3125C10.5906 4.3125 10.4078 4.38823 10.273 4.52302C10.1382 4.65781 10.0625 4.84063 10.0625 5.03125V12.9375C10.0625 13.0642 10.0961 13.1886 10.1597 13.2982C10.2233 13.4077 10.3147 13.4985 10.4247 13.5614L15.456 16.4364C15.6211 16.5256 15.8146 16.5467 15.995 16.4952C16.1755 16.4437 16.3287 16.3236 16.4218 16.1607C16.5149 15.9977 16.5406 15.8048 16.4933 15.6232C16.4461 15.4415 16.3297 15.2856 16.169 15.1886L11.5 12.5206V5.03125Z" fill="black"/>
</g>
<defs>
<clipPath id="clip0_63_247">
<rect width="23" height="23" fill="white"/>
</clipPath>
</defs>
</svg>
