<svg width="30" height="30" viewBox="0 0 30 30" fill="none" xmlns="http://www.w3.org/2000/svg">
<g id="bxs:phone">
<path id="Vector" d="M25.6091 21.425L20.5279 16.805C20.2877 16.5867 19.972 16.4703 19.6476 16.4803C19.3232 16.4903 19.0154 16.626 18.7891 16.8587L15.7979 19.935C15.0779 19.7975 13.6304 19.3462 12.1404 17.86C10.6504 16.3687 10.1991 14.9175 10.0654 14.2025L13.1391 11.21C13.3721 10.9839 13.508 10.676 13.5181 10.3515C13.5281 10.027 13.4115 9.71129 13.1929 9.47124L8.5741 4.39124C8.35541 4.15044 8.05145 4.00437 7.72679 3.98407C7.40214 3.96376 7.08235 4.07082 6.83535 4.28249L4.12285 6.60874C3.90674 6.82564 3.77775 7.11431 3.76035 7.41999C3.7416 7.73249 3.3841 15.135 9.1241 20.8775C14.1316 25.8837 20.4041 26.25 22.1316 26.25C22.3841 26.25 22.5391 26.2425 22.5804 26.24C22.886 26.2229 23.1745 26.0933 23.3904 25.8762L25.7154 23.1625C25.9279 22.9163 26.0357 22.5968 26.0159 22.2721C25.996 21.9475 25.85 21.6435 25.6091 21.425Z" fill="black"/>
</g>
</svg>
